<svg width="16" height="16" viewBox="0 0 16 16" fill="none" xmlns="http://www.w3.org/2000/svg">
<path d="M10.3305 4.41705L8.44222 0.83817C8.25461 0.482596 7.74537 0.482595 7.55777 0.838169L5.66953 4.41705C5.59718 4.55417 5.46532 4.64997 5.31255 4.67641L1.32534 5.36629C0.929199 5.43484 0.771834 5.91915 1.05203 6.20745L3.87225 9.10921C3.9803 9.22039 4.03067 9.3754 4.0086 9.52886L3.43261 13.5341C3.37538 13.932 3.78737 14.2314 4.14814 14.054L7.77937 12.2685C7.9185 12.2001 8.08149 12.2001 8.22062 12.2685L11.8518 14.054C12.2126 14.2314 12.6246 13.932 12.5674 13.5341L11.9914 9.52886C11.9693 9.3754 12.0197 9.22039 12.1277 9.10921L14.948 6.20745C15.2282 5.91915 15.0708 5.43484 14.6746 5.36629L10.6874 4.67641C10.5347 4.64997 10.4028 4.55417 10.3305 4.41705Z" fill="#FFC531"/>
</svg>
